<svg width="1920" height="1080" viewBox="0 0 1920 1080" fill="none" xmlns="http://www.w3.org/2000/svg">
<rect width="1920" height="1080" fill="#4234CF"/>
<path d="M204 333.342C269.621 311.992 287.579 288.749 277.353 222" stroke="#F08AE0" stroke-width="35"/>
<path d="M1766 879.342C1831.62 857.992 1849.58 834.749 1839.35 768" stroke="#F08AE0" stroke-width="35"/>
<path d="M681 664.342C746.621 642.992 764.579 619.749 754.353 553" stroke="#F08AE0" stroke-width="35"/>
<path d="M88.3443 72C96.2615 140.551 115.483 162.761 182.934 165.971" stroke="#F08AE0" stroke-width="35"/>
<path d="M1008.95 452C971.662 510.067 972.473 539.428 1022.64 584.628" stroke="#F08AE0" stroke-width="35"/>
<path d="M1748.95 240C1711.66 298.067 1712.47 327.428 1762.64 372.628" stroke="#F08AE0" stroke-width="35"/>
<path d="M565.344 403C573.261 471.551 592.483 493.761 659.934 496.971" stroke="#F08AE0" stroke-width="35"/>
<path d="M1494.34 743C1502.26 811.551 1521.48 833.761 1588.93 836.971" stroke="#F08AE0" stroke-width="35"/>
<path d="M1598.34 610C1606.26 678.551 1625.48 700.761 1692.93 703.971" stroke="#F08AE0" stroke-width="35"/>
<path d="M1699 1107.71C1764.21 1085.12 1781.72 1061.54 1770.24 995" stroke="#F08AE0" stroke-width="35"/>
<path d="M-29.6557 329C-21.7385 397.551 -2.51714 419.761 64.9344 422.971" stroke="#F08AE0" stroke-width="35"/>
<path d="M899.344 669C907.261 737.551 926.483 759.761 993.934 762.971" stroke="#F08AE0" stroke-width="35"/>
<path d="M1553.34 63C1561.26 131.551 1580.48 153.761 1647.93 156.971" stroke="#F08AE0" stroke-width="35"/>
<path d="M447.344 660C455.262 728.551 474.483 750.761 541.934 753.971" stroke="#F08AE0" stroke-width="35"/>
<path d="M1453.29 1009.83C1388.81 1034.4 1372.02 1058.5 1385.53 1124.66" stroke="#F08AE0" stroke-width="35"/>
<path d="M1101.34 54C1109.26 122.551 1128.48 144.761 1195.93 147.971" stroke="#F08AE0" stroke-width="35"/>
<path d="M233.509 669C219.648 736.601 230.982 763.698 294.067 787.788" stroke="#F08AE0" stroke-width="35"/>
<path d="M1310.51 -67C1296.65 0.600509 1307.98 27.6977 1371.07 51.7881" stroke="#F08AE0" stroke-width="35"/>
<path d="M887.509 63C873.648 130.601 884.982 157.698 948.067 181.788" stroke="#F08AE0" stroke-width="35"/>
<path d="M1778.51 -41C1764.65 26.6005 1775.98 53.6977 1839.07 77.7881" stroke="#F08AE0" stroke-width="35"/>
<path d="M710.509 1000C696.648 1067.6 707.982 1094.7 771.067 1118.79" stroke="#F08AE0" stroke-width="35"/>
<path d="M1364.51 394C1350.65 461.601 1361.98 488.698 1425.07 512.788" stroke="#F08AE0" stroke-width="35"/>
<path d="M343.365 539.97C308.585 480.368 282.063 467.747 219 491.895" stroke="#F08AE0" stroke-width="35"/>
<path d="M820.365 870.97C785.585 811.368 759.063 798.747 696 822.895" stroke="#F08AE0" stroke-width="35"/>
<path d="M1054.92 1038.21C986.427 1029.8 960.323 1043.27 941.356 1108.08" stroke="#F08AE0" stroke-width="35"/>
<path d="M1474.36 264.97C1439.58 205.368 1413.06 192.747 1350 216.895" stroke="#F08AE0" stroke-width="35"/>
<path d="M1654.36 476.97C1619.59 417.368 1593.06 404.747 1530 428.895" stroke="#F08AE0" stroke-width="35"/>
<path d="M189.365 943.97C154.585 884.368 128.063 871.747 65 895.895" stroke="#F08AE0" stroke-width="35"/>
<path d="M843.365 337.97C808.585 278.368 782.063 265.747 719 289.895" stroke="#F08AE0" stroke-width="35"/>
<path d="M1320.36 668.97C1285.58 609.368 1259.06 596.747 1196 620.895" stroke="#F08AE0" stroke-width="35"/>
<path d="M1014 917.691C1082.94 920.617 1107.89 905.115 1121.64 839" stroke="#F08AE0" stroke-width="35"/>
<path d="M1314.06 777C1274.36 833.441 1273.93 862.81 1322.14 910.088" stroke="#F08AE0" stroke-width="35"/>
<path d="M79.1844 699.193C62.5565 632.219 40.6502 612.653 -26.6573 618.104" stroke="#F08AE0" stroke-width="35"/>
<path d="M555.842 287.382C539.214 220.408 517.307 200.842 450 206.293" stroke="#F08AE0" stroke-width="35"/>
<path d="M733.184 93.1927C716.557 26.219 694.65 6.65281 627.343 12.1044" stroke="#F08AE0" stroke-width="35"/>
<path d="M556.184 1030.19C539.557 963.219 517.65 943.653 450.343 949.104" stroke="#F08AE0" stroke-width="35"/>
<path d="M1869 286.342C1934.62 264.992 1952.58 241.749 1942.35 175" stroke="#F08AE0" stroke-width="35"/>
<path d="M251 1101.95C317.268 1082.7 335.958 1060.04 327.864 993" stroke="#F08AE0" stroke-width="35"/>
<path d="M376.432 89.3297C383.892 20.7271 370.066 -5.18763 305 -23.2549" stroke="#F08AE0" stroke-width="35"/>
<path d="M1210.18 424.193C1193.56 357.219 1171.65 337.653 1104.34 343.104" stroke="#F08AE0" stroke-width="35"/>
<path d="M1976.36 618.97C1941.59 559.368 1915.06 546.747 1852 570.895" stroke="#F08AE0" stroke-width="35"/>
</svg>
